<mxfile host="app.diagrams.net" agent="Mozilla/5.0 (Windows NT 10.0; Win64; x64) AppleWebKit/537.36 (KHTML, like Gecko) Chrome/127.0.0.0 Safari/537.36 OPR/113.0.0.0" version="24.7.17">
  <diagram name="Страница — 1" id="39CopM4U_Jnnk8-4A_5U">
    <mxGraphModel dx="1423" dy="757" grid="1" gridSize="10" guides="1" tooltips="1" connect="1" arrows="1" fold="1" page="1" pageScale="1" pageWidth="827" pageHeight="1169" math="0" shadow="0">
      <root>
        <mxCell id="0" />
        <mxCell id="1" parent="0" />
        <mxCell id="M4EX0_oVuf-7Aw8t0vR8-4" value="" style="rounded=0;whiteSpace=wrap;html=1;" vertex="1" parent="1">
          <mxGeometry x="40" y="550" width="780" height="605" as="geometry" />
        </mxCell>
        <mxCell id="wvWucrkjCvH1_LwUqL4V-4" value="Int" style="rounded=0;whiteSpace=wrap;html=1;fillColor=#FFEDDE;" parent="1" vertex="1">
          <mxGeometry x="50" y="1100" width="70" height="30" as="geometry" />
        </mxCell>
        <mxCell id="wvWucrkjCvH1_LwUqL4V-5" value="Float" style="rounded=0;whiteSpace=wrap;html=1;fillColor=#FFEDDE;" parent="1" vertex="1">
          <mxGeometry x="151.75" y="1100" width="70" height="30" as="geometry" />
        </mxCell>
        <mxCell id="wvWucrkjCvH1_LwUqL4V-6" value="String" style="rounded=0;whiteSpace=wrap;html=1;fillColor=#FFEDDE;" parent="1" vertex="1">
          <mxGeometry x="255" y="1100" width="70" height="30" as="geometry" />
        </mxCell>
        <mxCell id="wvWucrkjCvH1_LwUqL4V-7" value="Boolean" style="rounded=0;whiteSpace=wrap;html=1;fillColor=#FFEDDE;" parent="1" vertex="1">
          <mxGeometry x="345" y="1100" width="70" height="30" as="geometry" />
        </mxCell>
        <mxCell id="wvWucrkjCvH1_LwUqL4V-8" value="Null" style="rounded=0;whiteSpace=wrap;html=1;fillColor=#FFEDDE;" parent="1" vertex="1">
          <mxGeometry x="435" y="1100" width="70" height="30" as="geometry" />
        </mxCell>
        <mxCell id="wvWucrkjCvH1_LwUqL4V-10" value="Numerical" style="rounded=0;whiteSpace=wrap;html=1;fillColor=#e1d5e7;strokeColor=#9673a6;" parent="1" vertex="1">
          <mxGeometry x="125" y="1040" width="70" height="30" as="geometry" />
        </mxCell>
        <mxCell id="wvWucrkjCvH1_LwUqL4V-12" value="" style="endArrow=classic;html=1;rounded=0;entryX=0.5;entryY=0;entryDx=0;entryDy=0;edgeStyle=elbowEdgeStyle;elbow=vertical;fillColor=#FFEDDE;" parent="1" target="wvWucrkjCvH1_LwUqL4V-4" edge="1">
          <mxGeometry width="50" height="50" relative="1" as="geometry">
            <mxPoint x="155" y="1070" as="sourcePoint" />
            <mxPoint x="205" y="1020" as="targetPoint" />
          </mxGeometry>
        </mxCell>
        <mxCell id="wvWucrkjCvH1_LwUqL4V-13" value="" style="endArrow=classic;html=1;rounded=0;entryX=0.5;entryY=0;entryDx=0;entryDy=0;edgeStyle=elbowEdgeStyle;elbow=vertical;fillColor=#FFEDDE;" parent="1" target="wvWucrkjCvH1_LwUqL4V-5" edge="1">
          <mxGeometry width="50" height="50" relative="1" as="geometry">
            <mxPoint x="165" y="1071" as="sourcePoint" />
            <mxPoint x="195" y="1100" as="targetPoint" />
          </mxGeometry>
        </mxCell>
        <mxCell id="wvWucrkjCvH1_LwUqL4V-15" value="Value" style="rounded=0;whiteSpace=wrap;html=1;labelBackgroundColor=none;fillColor=#e1d5e7;strokeColor=#9673a6;" parent="1" vertex="1">
          <mxGeometry x="240" y="960" width="115" height="40" as="geometry" />
        </mxCell>
        <mxCell id="wvWucrkjCvH1_LwUqL4V-17" value="" style="endArrow=classic;html=1;rounded=0;exitX=0.118;exitY=1.055;exitDx=0;exitDy=0;entryX=0.5;entryY=0;entryDx=0;entryDy=0;edgeStyle=elbowEdgeStyle;elbow=vertical;exitPerimeter=0;fillColor=#FFEDDE;" parent="1" source="wvWucrkjCvH1_LwUqL4V-15" target="wvWucrkjCvH1_LwUqL4V-10" edge="1">
          <mxGeometry width="50" height="50" relative="1" as="geometry">
            <mxPoint x="405" y="1080" as="sourcePoint" />
            <mxPoint x="455" y="1030" as="targetPoint" />
          </mxGeometry>
        </mxCell>
        <mxCell id="wvWucrkjCvH1_LwUqL4V-18" value="" style="endArrow=classic;html=1;rounded=0;entryX=0.5;entryY=0;entryDx=0;entryDy=0;exitX=0.442;exitY=1.025;exitDx=0;exitDy=0;exitPerimeter=0;fillColor=#FFEDDE;" parent="1" source="wvWucrkjCvH1_LwUqL4V-15" target="wvWucrkjCvH1_LwUqL4V-6" edge="1">
          <mxGeometry width="50" height="50" relative="1" as="geometry">
            <mxPoint x="290" y="1000" as="sourcePoint" />
            <mxPoint x="455" y="1030" as="targetPoint" />
          </mxGeometry>
        </mxCell>
        <mxCell id="wvWucrkjCvH1_LwUqL4V-19" value="" style="endArrow=classic;html=1;rounded=0;exitX=0.75;exitY=1;exitDx=0;exitDy=0;entryX=0.5;entryY=0;entryDx=0;entryDy=0;edgeStyle=orthogonalEdgeStyle;fillColor=#FFEDDE;" parent="1" source="wvWucrkjCvH1_LwUqL4V-15" target="wvWucrkjCvH1_LwUqL4V-7" edge="1">
          <mxGeometry width="50" height="50" relative="1" as="geometry">
            <mxPoint x="405" y="1080" as="sourcePoint" />
            <mxPoint x="455" y="1030" as="targetPoint" />
            <Array as="points">
              <mxPoint x="326" y="1070" />
              <mxPoint x="380" y="1070" />
            </Array>
          </mxGeometry>
        </mxCell>
        <mxCell id="wvWucrkjCvH1_LwUqL4V-20" value="" style="endArrow=classic;html=1;rounded=0;edgeStyle=elbowEdgeStyle;elbow=vertical;exitX=0.9;exitY=1.015;exitDx=0;exitDy=0;exitPerimeter=0;fillColor=#FFEDDE;" parent="1" source="wvWucrkjCvH1_LwUqL4V-15" edge="1">
          <mxGeometry width="50" height="50" relative="1" as="geometry">
            <mxPoint x="331" y="1010" as="sourcePoint" />
            <mxPoint x="470" y="1100" as="targetPoint" />
          </mxGeometry>
        </mxCell>
        <mxCell id="wvWucrkjCvH1_LwUqL4V-21" value="Containers" style="rounded=0;whiteSpace=wrap;html=1;fillColor=#e1d5e7;strokeColor=#9673a6;" parent="1" vertex="1">
          <mxGeometry x="520" y="1035" width="101" height="40" as="geometry" />
        </mxCell>
        <mxCell id="wvWucrkjCvH1_LwUqL4V-22" value="" style="endArrow=classic;html=1;rounded=0;exitX=0.5;exitY=1;exitDx=0;exitDy=0;entryX=0.5;entryY=0;entryDx=0;entryDy=0;fillColor=#FFEDDE;" parent="1" source="wvWucrkjCvH1_LwUqL4V-21" target="wvWucrkjCvH1_LwUqL4V-23" edge="1">
          <mxGeometry width="50" height="50" relative="1" as="geometry">
            <mxPoint x="392.5" y="980" as="sourcePoint" />
            <mxPoint x="565.5" y="1090" as="targetPoint" />
          </mxGeometry>
        </mxCell>
        <mxCell id="wvWucrkjCvH1_LwUqL4V-23" value="List Numerical" style="rounded=0;whiteSpace=wrap;html=1;fillColor=#FFEDDE;" parent="1" vertex="1">
          <mxGeometry x="520" y="1100" width="100" height="30" as="geometry" />
        </mxCell>
        <mxCell id="wvWucrkjCvH1_LwUqL4V-45" value="" style="edgeStyle=orthogonalEdgeStyle;rounded=0;orthogonalLoop=1;jettySize=auto;html=1;dashed=1;fillColor=#FFEDDE;" parent="1" source="wvWucrkjCvH1_LwUqL4V-31" target="wvWucrkjCvH1_LwUqL4V-44" edge="1">
          <mxGeometry relative="1" as="geometry" />
        </mxCell>
        <mxCell id="wvWucrkjCvH1_LwUqL4V-31" value="1. VariableName&lt;div&gt;2. Value&lt;/div&gt;" style="rounded=0;whiteSpace=wrap;html=1;align=left;fillColor=#FFEDDE;" parent="1" vertex="1">
          <mxGeometry x="242.5" y="870" width="110" height="40" as="geometry" />
        </mxCell>
        <mxCell id="wvWucrkjCvH1_LwUqL4V-39" value="" style="edgeStyle=orthogonalEdgeStyle;rounded=0;orthogonalLoop=1;jettySize=auto;html=1;dashed=1;fillColor=#FFEDDE;" parent="1" source="wvWucrkjCvH1_LwUqL4V-32" target="wvWucrkjCvH1_LwUqL4V-38" edge="1">
          <mxGeometry relative="1" as="geometry" />
        </mxCell>
        <mxCell id="wvWucrkjCvH1_LwUqL4V-32" value="Function" style="rounded=0;whiteSpace=wrap;html=1;fillColor=#FFEDDE;" parent="1" vertex="1">
          <mxGeometry x="641" y="960" width="100" height="30" as="geometry" />
        </mxCell>
        <mxCell id="wvWucrkjCvH1_LwUqL4V-37" value="" style="edgeStyle=orthogonalEdgeStyle;rounded=0;orthogonalLoop=1;jettySize=auto;html=1;dashed=1;fillColor=#FFEDDE;" parent="1" source="wvWucrkjCvH1_LwUqL4V-34" target="wvWucrkjCvH1_LwUqL4V-32" edge="1">
          <mxGeometry relative="1" as="geometry" />
        </mxCell>
        <mxCell id="wvWucrkjCvH1_LwUqL4V-35" value="" style="endArrow=classic;html=1;rounded=0;exitX=0.5;exitY=1;exitDx=0;exitDy=0;entryX=0.5;entryY=0;entryDx=0;entryDy=0;dashed=1;fillColor=#FFEDDE;" parent="1" source="wvWucrkjCvH1_LwUqL4V-31" target="wvWucrkjCvH1_LwUqL4V-15" edge="1">
          <mxGeometry width="50" height="50" relative="1" as="geometry">
            <mxPoint x="415" y="930" as="sourcePoint" />
            <mxPoint x="465" y="880" as="targetPoint" />
          </mxGeometry>
        </mxCell>
        <mxCell id="wvWucrkjCvH1_LwUqL4V-36" value="" style="endArrow=classic;html=1;rounded=0;exitX=0;exitY=0.5;exitDx=0;exitDy=0;dashed=1;edgeStyle=elbowEdgeStyle;entryX=1;entryY=0.5;entryDx=0;entryDy=0;fillColor=#FFEDDE;" parent="1" source="wvWucrkjCvH1_LwUqL4V-23" target="wvWucrkjCvH1_LwUqL4V-10" edge="1">
          <mxGeometry width="50" height="50" relative="1" as="geometry">
            <mxPoint x="493.5" y="1115" as="sourcePoint" />
            <mxPoint x="171" y="1060" as="targetPoint" />
            <Array as="points">
              <mxPoint x="511" y="1090" />
            </Array>
          </mxGeometry>
        </mxCell>
        <mxCell id="wvWucrkjCvH1_LwUqL4V-38" value="&lt;div&gt;&lt;br&gt;&lt;/div&gt;Arguments Validator&lt;div&gt;&lt;br&gt;&lt;/div&gt;" style="rounded=0;whiteSpace=wrap;html=1;fillColor=#FFEDDE;" parent="1" vertex="1">
          <mxGeometry x="631" y="1030" width="120" height="30" as="geometry" />
        </mxCell>
        <mxCell id="wvWucrkjCvH1_LwUqL4V-42" value="Function call" style="swimlane;whiteSpace=wrap;html=1;startSize=30;fillColor=#FFEDDE;" parent="1" vertex="1">
          <mxGeometry x="460" y="920" width="100" height="80" as="geometry">
            <mxRectangle x="644" y="240" width="110" height="30" as="alternateBounds" />
          </mxGeometry>
        </mxCell>
        <mxCell id="wvWucrkjCvH1_LwUqL4V-34" value="&lt;div style=&quot;text-align: left;&quot;&gt;&lt;span style=&quot;background-color: initial;&quot;&gt;1. Function&lt;/span&gt;&lt;/div&gt;2. Arguments" style="rounded=0;whiteSpace=wrap;html=1;fillColor=#FFEDDE;" parent="wvWucrkjCvH1_LwUqL4V-42" vertex="1">
          <mxGeometry y="30" width="100" height="50" as="geometry" />
        </mxCell>
        <mxCell id="wvWucrkjCvH1_LwUqL4V-44" value="VariableName" style="rounded=0;whiteSpace=wrap;html=1;fillColor=#FFEDDE;" parent="1" vertex="1">
          <mxGeometry x="95" y="960" width="100" height="30" as="geometry" />
        </mxCell>
        <mxCell id="wvWucrkjCvH1_LwUqL4V-46" value="Variable" style="swimlane;whiteSpace=wrap;html=1;startSize=30;fillColor=#FFEDDE;" parent="1" vertex="1">
          <mxGeometry x="242.5" y="840" width="110" height="70" as="geometry" />
        </mxCell>
        <mxCell id="wvWucrkjCvH1_LwUqL4V-50" value="&lt;h1 style=&quot;margin-top: 0px; line-height: 110%;&quot;&gt;Language Construct Component&lt;/h1&gt;&lt;p style=&quot;line-height: 110%;&quot;&gt;Core component of the interpretator, that contains fundamental elements of the programming language is shown on this part of the scheme&lt;/p&gt;" style="text;html=1;whiteSpace=wrap;overflow=hidden;rounded=0;align=left;verticalAlign=top;textShadow=0;fillColor=#f9ffde;dashed=1;strokeColor=default;" parent="1" vertex="1">
          <mxGeometry x="576.5" y="780" width="229" height="170" as="geometry" />
        </mxCell>
        <mxCell id="wvWucrkjCvH1_LwUqL4V-52" value="Primitive Functions implementation" style="rounded=0;whiteSpace=wrap;html=1;fillColor=#FFEDDE;" parent="1" vertex="1">
          <mxGeometry x="631" y="1070" width="120" height="60" as="geometry" />
        </mxCell>
        <mxCell id="wvWucrkjCvH1_LwUqL4V-53" value="" style="endArrow=classic;html=1;rounded=0;exitX=1;exitY=0.5;exitDx=0;exitDy=0;entryX=1;entryY=0.5;entryDx=0;entryDy=0;edgeStyle=orthogonalEdgeStyle;dashed=1;fillColor=#FFEDDE;" parent="1" source="wvWucrkjCvH1_LwUqL4V-32" target="wvWucrkjCvH1_LwUqL4V-52" edge="1">
          <mxGeometry width="50" height="50" relative="1" as="geometry">
            <mxPoint x="741" y="980" as="sourcePoint" />
            <mxPoint x="791" y="930" as="targetPoint" />
            <Array as="points">
              <mxPoint x="770" y="975" />
              <mxPoint x="770" y="1100" />
            </Array>
          </mxGeometry>
        </mxCell>
        <mxCell id="wvWucrkjCvH1_LwUqL4V-56" value="" style="edgeStyle=orthogonalEdgeStyle;rounded=0;orthogonalLoop=1;jettySize=auto;html=1;dashed=1;fillColor=#FFEDDE;" parent="1" source="wvWucrkjCvH1_LwUqL4V-54" target="wvWucrkjCvH1_LwUqL4V-55" edge="1">
          <mxGeometry relative="1" as="geometry" />
        </mxCell>
        <mxCell id="wvWucrkjCvH1_LwUqL4V-58" value="" style="edgeStyle=orthogonalEdgeStyle;rounded=0;orthogonalLoop=1;jettySize=auto;html=1;dashed=1;fillColor=#FFEDDE;" parent="1" source="wvWucrkjCvH1_LwUqL4V-54" target="wvWucrkjCvH1_LwUqL4V-57" edge="1">
          <mxGeometry relative="1" as="geometry" />
        </mxCell>
        <mxCell id="wvWucrkjCvH1_LwUqL4V-54" value="Program state" style="rounded=0;whiteSpace=wrap;html=1;fillColor=#FFEDDE;" parent="1" vertex="1">
          <mxGeometry x="450" y="695" width="120" height="60" as="geometry" />
        </mxCell>
        <mxCell id="wvWucrkjCvH1_LwUqL4V-55" value="Symbol Table" style="whiteSpace=wrap;html=1;rounded=0;fillColor=#FFEDDE;" parent="1" vertex="1">
          <mxGeometry x="310" y="705" width="100" height="40" as="geometry" />
        </mxCell>
        <mxCell id="wvWucrkjCvH1_LwUqL4V-57" value="Logger" style="whiteSpace=wrap;html=1;rounded=0;fillColor=#FFEDDE;" parent="1" vertex="1">
          <mxGeometry x="605" y="705" width="100" height="40" as="geometry" />
        </mxCell>
        <mxCell id="wvWucrkjCvH1_LwUqL4V-60" value="" style="endArrow=classic;html=1;rounded=0;entryX=0.5;entryY=1;entryDx=0;entryDy=0;exitX=0.5;exitY=0;exitDx=0;exitDy=0;dashed=1;edgeStyle=orthogonalEdgeStyle;fillColor=#dae8fc;strokeColor=#7F98DE;" parent="1" source="wvWucrkjCvH1_LwUqL4V-42" target="wvWucrkjCvH1_LwUqL4V-54" edge="1">
          <mxGeometry width="50" height="50" relative="1" as="geometry">
            <mxPoint x="430" y="790" as="sourcePoint" />
            <mxPoint x="480" y="740" as="targetPoint" />
          </mxGeometry>
        </mxCell>
        <mxCell id="wvWucrkjCvH1_LwUqL4V-71" value="" style="edgeStyle=orthogonalEdgeStyle;rounded=0;orthogonalLoop=1;jettySize=auto;html=1;entryX=0.5;entryY=0;entryDx=0;entryDy=0;dashed=1;fillColor=#FFEDDE;" parent="1" source="wvWucrkjCvH1_LwUqL4V-65" target="wvWucrkjCvH1_LwUqL4V-54" edge="1">
          <mxGeometry relative="1" as="geometry">
            <mxPoint x="594.9999999999998" y="560" as="targetPoint" />
          </mxGeometry>
        </mxCell>
        <mxCell id="wvWucrkjCvH1_LwUqL4V-65" value="Program&amp;nbsp;" style="rounded=0;whiteSpace=wrap;html=1;fillColor=#FFEDDE;" parent="1" vertex="1">
          <mxGeometry x="450" y="590" width="120" height="60" as="geometry" />
        </mxCell>
        <mxCell id="wvWucrkjCvH1_LwUqL4V-72" value="" style="endArrow=classic;html=1;rounded=0;exitX=1;exitY=0.5;exitDx=0;exitDy=0;edgeStyle=orthogonalEdgeStyle;dashed=1;entryX=0;entryY=0.5;entryDx=0;entryDy=0;fillColor=#FFEDDE;" parent="1" source="wvWucrkjCvH1_LwUqL4V-65" target="wvWucrkjCvH1_LwUqL4V-73" edge="1">
          <mxGeometry width="50" height="50" relative="1" as="geometry">
            <mxPoint x="570" y="595" as="sourcePoint" />
            <mxPoint x="645" y="590" as="targetPoint" />
          </mxGeometry>
        </mxCell>
        <mxCell id="wvWucrkjCvH1_LwUqL4V-73" value="Parser" style="rounded=0;whiteSpace=wrap;html=1;fillColor=#FFEDDE;" parent="1" vertex="1">
          <mxGeometry x="605" y="595" width="110" height="50" as="geometry" />
        </mxCell>
        <mxCell id="wvWucrkjCvH1_LwUqL4V-74" value="&lt;h1 style=&quot;margin-top: 0px; line-height: 110%;&quot;&gt;Program&amp;nbsp; &amp;nbsp; &lt;br&gt;Control&amp;nbsp; Component&lt;/h1&gt;&lt;p style=&quot;line-height: 110%;&quot;&gt;Core component of the interpretator, that controls the program flow, preprocess the input expressions and stores the data about program state.&amp;nbsp;&lt;/p&gt;" style="text;html=1;whiteSpace=wrap;overflow=hidden;rounded=0;align=left;verticalAlign=top;textShadow=0;fillColor=#f9ffde;strokeColor=default;dashed=1;" parent="1" vertex="1">
          <mxGeometry x="75" y="590" width="223.5" height="170" as="geometry" />
        </mxCell>
      </root>
    </mxGraphModel>
  </diagram>
</mxfile>
